<svg width="1280" height="1029" viewBox="0 0 1280 1029" fill="none" xmlns="http://www.w3.org/2000/svg">
<mask id="mask0_42_109" style="mask-type:alpha" maskUnits="userSpaceOnUse" x="-46" y="0" width="1372" height="1029">
<rect x="-46" width="1372" height="1029" fill="#101010"/>
</mask>
<g mask="url(#mask0_42_109)">
<g filter="url(#filter0_f_42_109)">
<ellipse cx="641.472" cy="644.952" rx="404.938" ry="384.169" fill="url(#paint0_linear_42_109)"/>
</g>
<g filter="url(#filter1_f_42_109)">
<ellipse cx="641.472" cy="644.952" rx="279.284" ry="264.96" fill="#6969FF"/>
</g>
<path opacity="0.1" d="M1146.05 662.181C1146.05 927.292 919.508 1142.25 640 1142.25C360.493 1142.25 133.951 927.292 133.951 662.181C133.951 397.07 360.493 182.111 640 182.111C919.508 182.111 1146.05 397.07 1146.05 662.181Z" stroke="white" stroke-width="0.981667"/>
<path opacity="0.15" d="M1032.49 656.305C1032.52 657.608 1032.53 658.913 1032.54 660.22L1032.05 660.223C1032.05 660.526 1032.05 660.829 1032.05 661.132C1032.05 661.481 1032.05 661.831 1032.05 662.181C1032.05 662.54 1032.05 662.899 1032.05 663.258C1032.05 663.552 1032.05 663.846 1032.05 664.139L1032.54 664.142C1032.53 665.449 1032.52 666.754 1032.49 668.057L1032 668.049C1031.98 669.351 1031.95 670.651 1031.92 671.949L1032.41 671.963C1032.37 673.263 1032.33 674.561 1032.28 675.858L1031.79 675.839C1031.74 677.134 1031.69 678.428 1031.62 679.719L1032.11 679.743C1032.05 681.045 1031.98 682.344 1031.9 683.642L1031.41 683.613C1031.33 684.914 1031.25 686.214 1031.16 687.512L1031.65 687.547C1031.55 688.846 1031.45 690.144 1031.35 691.44L1030.86 691.4C1030.75 692.695 1030.64 693.987 1030.52 695.277L1031.01 695.323C1030.89 696.615 1030.76 697.905 1030.63 699.194L1030.14 699.143C1030.01 700.438 1029.86 701.731 1029.71 703.022L1030.2 703.079C1030.05 704.375 1029.9 705.669 1029.73 706.961L1029.25 706.899C1029.08 708.19 1028.91 709.478 1028.74 710.764L1029.22 710.831C1029.05 712.119 1028.86 713.405 1028.67 714.688L1028.19 714.616C1027.99 715.898 1027.8 717.178 1027.59 718.456L1028.08 718.533C1027.87 719.822 1027.66 721.108 1027.44 722.392L1026.95 722.309C1026.73 723.592 1026.51 724.873 1026.27 726.152L1026.76 726.24C1026.52 727.521 1026.28 728.799 1026.03 730.075L1025.55 729.982C1025.3 731.256 1025.05 732.528 1024.79 733.797L1025.27 733.896C1025.01 735.169 1024.74 736.439 1024.47 737.706L1023.99 737.602C1023.71 738.875 1023.43 740.146 1023.14 741.414L1023.61 741.524C1023.32 742.794 1023.03 744.061 1022.72 745.326L1022.25 745.212C1021.94 746.475 1021.63 747.736 1021.31 748.994L1021.79 749.114C1021.47 750.375 1021.15 751.632 1020.82 752.888L1020.34 752.762C1020.01 754.018 1019.67 755.272 1019.33 756.522L1019.8 756.653C1019.45 757.909 1019.1 759.163 1018.74 760.415L1018.27 760.279C1017.91 761.529 1017.54 762.776 1017.17 764.02L1017.64 764.161C1017.27 765.407 1016.89 766.651 1016.5 767.891L1016.03 767.745C1015.65 768.984 1015.26 770.221 1014.86 771.454L1015.32 771.605C1014.92 772.844 1014.52 774.08 1014.1 775.313L1013.64 775.157C1013.22 776.39 1012.8 777.62 1012.38 778.848L1012.84 779.009C1012.41 780.238 1011.98 781.464 1011.54 782.688L1011.07 782.522C1010.63 783.743 1010.19 784.962 1009.73 786.178L1010.19 786.35C1009.74 787.568 1009.28 788.782 1008.81 789.994L1008.35 789.818C1007.89 791.032 1007.41 792.242 1006.93 793.45L1007.39 793.632C1006.91 794.841 1006.42 796.048 1005.93 797.252L1005.47 797.065C1004.98 798.267 1004.48 799.466 1003.97 800.662L1004.43 800.854C1003.92 802.051 1003.41 803.246 1002.89 804.437L1002.44 804.241C1001.92 805.431 1001.39 806.618 1000.86 807.802L1001.31 808.004C1000.77 809.191 1000.24 810.376 999.689 811.557L999.244 811.351C998.699 812.531 998.147 813.708 997.59 814.881L998.033 815.092C997.474 816.266 996.91 817.438 996.339 818.606L995.898 818.391C995.328 819.558 994.752 820.721 994.169 821.882L994.608 822.102C994.024 823.264 993.435 824.424 992.839 825.58L992.403 825.355C991.807 826.51 991.205 827.662 990.598 828.81L991.032 829.04C990.423 830.19 989.809 831.336 989.188 832.479L988.757 832.245C988.137 833.387 987.511 834.525 986.879 835.659L987.308 835.898C986.675 837.034 986.036 838.167 985.392 839.296L984.965 839.053C984.321 840.181 983.671 841.306 983.015 842.427L983.439 842.675C982.782 843.798 982.119 844.917 981.45 846.033L981.029 845.781C980.361 846.895 979.687 848.006 979.007 849.112L979.425 849.369C978.745 850.478 978.058 851.583 977.366 852.684L976.95 852.422C976.259 853.522 975.562 854.618 974.859 855.71L975.272 855.976C974.568 857.07 973.858 858.16 973.142 859.246L972.733 858.976C972.018 860.061 971.298 861.142 970.572 862.219L970.979 862.494C970.252 863.572 969.52 864.647 968.781 865.719L968.377 865.44C967.64 866.51 966.897 867.576 966.148 868.638L966.55 868.92C965.8 869.983 965.046 871.043 964.285 872.098L963.887 871.811C963.128 872.865 962.363 873.914 961.593 874.96L961.988 875.251C961.216 876.298 960.439 877.342 959.657 878.381L959.265 878.086C958.484 879.124 957.697 880.158 956.905 881.188L957.294 881.487C956.5 882.518 955.702 883.545 954.897 884.569L954.511 884.265C953.709 885.286 952.901 886.303 952.088 887.316L952.471 887.623C951.657 888.637 950.838 889.647 950.013 890.653L949.633 890.341C948.81 891.346 947.981 892.346 947.147 893.342L947.523 893.657C946.688 894.655 945.847 895.648 945.001 896.637L944.628 896.318C943.784 897.306 942.934 898.289 942.079 899.268L942.449 899.591C941.594 900.57 940.734 901.545 939.869 902.516L939.503 902.189C938.639 903.158 937.77 904.123 936.895 905.084L937.258 905.414C936.383 906.377 935.502 907.334 934.617 908.288L934.257 907.954C933.373 908.906 932.483 909.854 931.589 910.797L931.945 911.135C931.05 912.079 930.151 913.018 929.246 913.953L928.893 913.612C927.991 914.544 927.083 915.473 926.171 916.397L926.52 916.742C925.606 917.667 924.688 918.588 923.764 919.504L923.419 919.156C922.496 920.071 921.569 920.981 920.637 921.887L920.979 922.239C920.046 923.147 919.108 924.049 918.165 924.948L917.827 924.592C916.887 925.488 915.943 926.379 914.993 927.265L915.328 927.624C914.378 928.511 913.424 929.393 912.464 930.271L912.133 929.909C911.175 930.785 910.212 931.657 909.244 932.525L909.572 932.89C908.603 933.759 907.63 934.623 906.652 935.482L906.328 935.113C905.351 935.971 904.37 936.825 903.384 937.673L903.705 938.045C902.72 938.893 901.731 939.736 900.738 940.574L900.421 940.198C899.429 941.035 898.432 941.868 897.431 942.695L897.744 943.074C896.742 943.902 895.735 944.726 894.723 945.545L894.414 945.164C893.404 945.982 892.39 946.795 891.371 947.603L891.676 947.988C890.657 948.796 889.634 949.6 888.606 950.399L888.305 950.011C887.28 950.807 886.252 951.599 885.219 952.385L885.516 952.776C884.482 953.563 883.444 954.346 882.401 955.123L882.108 954.73C881.066 955.507 880.021 956.278 878.971 957.045L879.26 957.442C878.209 958.209 877.154 958.972 876.094 959.73L875.808 959.331C874.753 960.086 873.693 960.836 872.628 961.582L872.91 961.984C871.846 962.729 870.778 963.469 869.706 964.204L869.428 963.8C868.357 964.534 867.283 965.263 866.204 965.987L866.477 966.395C865.397 967.12 864.313 967.84 863.225 968.555L862.955 968.145C861.868 968.859 860.777 969.568 859.682 970.272L859.948 970.685C858.856 971.387 857.759 972.084 856.659 972.777L856.398 972.361C855.3 973.052 854.198 973.738 853.092 974.418L853.349 974.836C852.242 975.518 851.13 976.194 850.016 976.865L849.762 976.445C848.649 977.115 847.531 977.78 846.41 978.44L846.659 978.863C845.537 979.523 844.411 980.179 843.282 980.829L843.037 980.403C841.913 981.05 840.786 981.691 839.655 982.327L839.896 982.755C838.763 983.392 837.628 984.023 836.488 984.65L836.252 984.22C835.113 984.845 833.972 985.466 832.826 986.081L833.058 986.513C831.911 987.129 830.761 987.739 829.607 988.344L829.379 987.909C828.228 988.513 827.074 989.111 825.916 989.704L826.139 990.141C824.984 990.732 823.825 991.318 822.663 991.899L822.444 991.46C821.283 992.04 820.119 992.615 818.951 993.184L819.166 993.625C817.997 994.195 816.825 994.76 815.649 995.319L815.438 994.875C814.264 995.434 813.086 995.987 811.905 996.534L812.111 996.98C810.932 997.526 809.749 998.068 808.562 998.604L808.36 998.156C807.179 998.69 805.994 999.218 804.807 999.741L805.004 1000.19C803.815 1000.71 802.623 1001.23 801.427 1001.74L801.234 1001.29C800.039 1001.8 798.842 1002.31 797.641 1002.81L797.83 1003.26C796.628 1003.77 795.423 1004.26 794.215 1004.75L794.03 1004.3C792.828 1004.79 791.622 1005.27 790.414 1005.74L790.594 1006.2C789.387 1006.68 788.176 1007.15 786.963 1007.61L786.787 1007.15C785.575 1007.62 784.361 1008.08 783.143 1008.53L783.314 1008.99C782.095 1009.44 780.872 1009.89 779.647 1010.34L779.48 1009.87C778.257 1010.32 777.03 1010.75 775.8 1011.18L775.963 1011.65C774.737 1012.08 773.509 1012.5 772.278 1012.92L772.12 1012.45C770.893 1012.87 769.663 1013.28 768.43 1013.69L768.583 1014.15C767.349 1014.56 766.111 1014.96 764.871 1015.35L764.722 1014.88C763.484 1015.28 762.243 1015.67 760.999 1016.05L761.143 1016.52C759.897 1016.9 758.649 1017.28 757.398 1017.65L757.258 1017.18C756.016 1017.55 754.771 1017.91 753.524 1018.27L753.659 1018.74C752.412 1019.1 751.162 1019.45 749.909 1019.8L749.778 1019.32C748.527 1019.67 747.273 1020.01 746.017 1020.34L746.143 1020.82C744.885 1021.15 743.625 1021.48 742.362 1021.8L742.241 1021.33C740.979 1021.65 739.716 1021.97 738.449 1022.28L738.566 1022.75C737.307 1023.06 736.045 1023.36 734.781 1023.66L734.669 1023.18C733.407 1023.48 732.143 1023.77 730.877 1024.06L730.985 1024.54C729.717 1024.82 728.447 1025.1 727.175 1025.37L727.071 1024.89C725.801 1025.17 724.527 1025.44 723.252 1025.7L723.35 1026.18C722.073 1026.44 720.794 1026.7 719.512 1026.95L719.418 1026.46C718.147 1026.71 716.875 1026.95 715.599 1027.19L715.689 1027.67C714.414 1027.91 713.136 1028.14 711.856 1028.37L711.771 1027.88C710.493 1028.11 709.212 1028.32 707.93 1028.54L708.01 1029.02C706.726 1029.23 705.44 1029.44 704.151 1029.64L704.076 1029.16C702.789 1029.36 701.5 1029.55 700.209 1029.74L700.28 1030.23C698.998 1030.41 697.713 1030.6 696.427 1030.77L696.361 1030.29C695.077 1030.46 693.792 1030.63 692.505 1030.79L692.567 1031.28C691.278 1031.44 689.987 1031.6 688.694 1031.75L688.637 1031.27C687.346 1031.42 686.053 1031.56 684.758 1031.7L684.81 1032.19C683.514 1032.33 682.215 1032.46 680.915 1032.59L680.867 1032.1C679.578 1032.23 678.288 1032.35 676.996 1032.47L677.039 1032.95C675.748 1033.07 674.455 1033.18 673.161 1033.28L673.122 1032.79C671.829 1032.89 670.534 1032.99 669.237 1033.08L669.271 1033.57C667.973 1033.66 666.673 1033.75 665.371 1033.83L665.342 1033.34C664.041 1033.41 662.74 1033.49 661.436 1033.55L661.461 1034.04C660.165 1034.11 658.868 1034.17 657.569 1034.22L657.549 1033.73C656.256 1033.79 654.962 1033.84 653.666 1033.88L653.682 1034.37C652.384 1034.41 651.085 1034.45 649.785 1034.48L649.773 1033.99C648.474 1034.02 647.173 1034.04 645.871 1034.06L645.878 1034.55C644.574 1034.57 643.269 1034.58 641.962 1034.59L641.96 1034.1C641.307 1034.1 640.654 1034.1 640.001 1034.1C639.347 1034.1 638.694 1034.1 638.042 1034.1L638.04 1034.59C636.733 1034.58 635.428 1034.57 634.124 1034.55L634.131 1034.06C632.828 1034.04 631.528 1034.02 630.228 1033.99L630.217 1034.48C628.916 1034.45 627.617 1034.41 626.32 1034.37L626.336 1033.88C625.04 1033.84 623.745 1033.79 622.453 1033.73L622.432 1034.22C621.133 1034.17 619.836 1034.11 618.541 1034.04L618.566 1033.55C617.262 1033.49 615.96 1033.41 614.66 1033.34L614.63 1033.83C613.329 1033.75 612.029 1033.66 610.73 1033.57L610.765 1033.08C609.468 1032.99 608.173 1032.89 606.88 1032.79L606.841 1033.28C605.546 1033.18 604.253 1033.07 602.962 1032.95L603.006 1032.47C601.713 1032.35 600.423 1032.23 599.135 1032.1L599.087 1032.59C597.786 1032.46 596.488 1032.33 595.191 1032.19L595.244 1031.7C593.949 1031.56 592.656 1031.42 591.364 1031.27L591.307 1031.75C590.014 1031.6 588.724 1031.44 587.435 1031.28L587.497 1030.79C586.209 1030.63 584.924 1030.46 583.641 1030.29L583.574 1030.77C582.288 1030.6 581.004 1030.41 579.721 1030.23L579.792 1029.74C578.501 1029.55 577.212 1029.36 575.926 1029.16L575.85 1029.64C574.561 1029.44 573.275 1029.23 571.991 1029.02L572.071 1028.54C570.789 1028.32 569.508 1028.11 568.23 1027.88L568.145 1028.37C566.865 1028.14 565.588 1027.91 564.312 1027.67L564.402 1027.19C563.127 1026.95 561.854 1026.71 560.583 1026.46L560.489 1026.95C559.207 1026.7 557.928 1026.44 556.651 1026.18L556.749 1025.7C555.474 1025.44 554.201 1025.17 552.93 1024.89L552.826 1025.37C551.554 1025.1 550.284 1024.82 549.016 1024.54L549.124 1024.06C547.858 1023.77 546.594 1023.48 545.332 1023.18L545.22 1023.66C543.956 1023.36 542.694 1023.06 541.435 1022.75L541.552 1022.28C540.285 1021.97 539.022 1021.65 537.76 1021.33L537.639 1021.8C536.376 1021.48 535.115 1021.15 533.858 1020.82L533.984 1020.34C532.728 1020.01 531.474 1019.67 530.223 1019.32L530.092 1019.8C528.839 1019.45 527.589 1019.1 526.342 1018.74L526.477 1018.27C525.23 1017.91 523.985 1017.55 522.743 1017.18L522.603 1017.65C521.352 1017.28 520.104 1016.9 518.858 1016.52L519.002 1016.05C517.758 1015.67 516.517 1015.28 515.279 1014.88L515.13 1015.35C513.89 1014.96 512.652 1014.56 511.418 1014.15L511.571 1013.69C510.338 1013.28 509.108 1012.87 507.881 1012.45L507.723 1012.92C506.492 1012.5 505.264 1012.08 504.038 1011.65L504.201 1011.18C502.971 1010.75 501.744 1010.32 500.521 1009.87L500.354 1010.34C499.129 1009.89 497.906 1009.44 496.687 1008.99L496.858 1008.53C495.64 1008.08 494.426 1007.62 493.214 1007.15L493.038 1007.61C491.825 1007.15 490.614 1006.68 489.407 1006.2L489.587 1005.74C488.379 1005.27 487.173 1004.78 485.97 1004.3L485.786 1004.75C484.578 1004.26 483.373 1003.77 482.171 1003.26L482.359 1002.81C481.159 1002.31 479.962 1001.8 478.767 1001.29L478.574 1001.74C477.378 1001.23 476.186 1000.71 474.997 1000.19L475.194 999.741C474.007 999.218 472.822 998.69 471.641 998.156L471.439 998.604C470.252 998.068 469.069 997.526 467.89 996.979L468.096 996.534C466.915 995.987 465.737 995.434 464.563 994.875L464.352 995.319C463.176 994.759 462.004 994.195 460.835 993.625L461.05 993.184C459.882 992.615 458.718 992.04 457.557 991.46L457.338 991.899C456.176 991.318 455.017 990.732 453.862 990.141L454.085 989.704C452.927 989.111 451.773 988.513 450.622 987.909L450.394 988.344C449.24 987.739 448.089 987.129 446.943 986.513L447.175 986.08C446.029 985.465 444.888 984.845 443.749 984.22L443.513 984.65C442.373 984.023 441.237 983.392 440.105 982.755L440.346 982.327C439.215 981.691 438.088 981.05 436.964 980.403L436.719 980.829C435.59 980.179 434.464 979.523 433.342 978.863L433.591 978.44C432.469 977.78 431.352 977.115 430.239 976.445L429.985 976.865C428.871 976.194 427.759 975.518 426.652 974.836L426.909 974.418C425.803 973.738 424.701 973.052 423.603 972.361L423.342 972.776C422.242 972.084 421.145 971.387 420.053 970.685L420.318 970.272C419.224 969.568 418.133 968.859 417.046 968.145L416.776 968.555C415.688 967.84 414.604 967.12 413.524 966.395L413.797 965.987C412.718 965.263 411.643 964.534 410.573 963.799L410.295 964.204C409.223 963.469 408.155 962.729 407.091 961.984L407.373 961.582C406.308 960.836 405.248 960.086 404.193 959.331L403.907 959.73C402.847 958.972 401.792 958.209 400.741 957.441L401.03 957.045C399.98 956.278 398.935 955.506 397.893 954.73L397.6 955.123C396.557 954.345 395.519 953.563 394.485 952.775L394.782 952.385C393.749 951.599 392.721 950.807 391.696 950.011L391.395 950.399C390.367 949.6 389.344 948.796 388.325 947.988L388.63 947.603C387.611 946.795 386.597 945.981 385.587 945.163L385.278 945.545C384.266 944.726 383.259 943.902 382.257 943.073L382.57 942.695C381.569 941.868 380.572 941.035 379.58 940.198L379.263 940.573C378.27 939.735 377.281 938.893 376.296 938.045L376.617 937.673C375.631 936.825 374.65 935.971 373.673 935.113L373.349 935.482C372.371 934.623 371.398 933.759 370.429 932.89L370.757 932.525C369.789 931.657 368.826 930.785 367.868 929.908L367.537 930.271C366.577 929.393 365.623 928.51 364.673 927.623L365.008 927.265C364.058 926.378 363.114 925.488 362.174 924.592L361.836 924.948C360.893 924.049 359.955 923.146 359.022 922.239L359.364 921.887C358.432 920.981 357.505 920.07 356.583 919.155L356.237 919.504C355.313 918.587 354.395 917.667 353.481 916.742L353.83 916.397C352.918 915.473 352.01 914.544 351.108 913.612L350.755 913.953C349.85 913.018 348.951 912.078 348.056 911.135L348.412 910.797C347.518 909.853 346.628 908.906 345.744 907.953L345.384 908.287C344.499 907.334 343.618 906.376 342.743 905.414L343.106 905.084C342.231 904.123 341.362 903.158 340.498 902.189L340.132 902.515C339.267 901.545 338.407 900.57 337.552 899.591L337.922 899.268C337.067 898.289 336.217 897.305 335.373 896.318L335 896.637C334.154 895.648 333.313 894.655 332.478 893.657L332.854 893.342C332.02 892.346 331.191 891.346 330.368 890.341L329.988 890.652C329.163 889.647 328.344 888.637 327.53 887.623L327.913 887.316C327.1 886.303 326.292 885.286 325.49 884.265L325.104 884.568C324.3 883.545 323.501 882.518 322.707 881.487L323.096 881.187C322.304 880.157 321.517 879.124 320.736 878.086L320.344 878.381C319.562 877.342 318.785 876.298 318.013 875.251L318.409 874.96C317.638 873.914 316.873 872.864 316.114 871.811L315.716 872.098C314.956 871.042 314.201 869.983 313.451 868.92L313.853 868.637C313.104 867.575 312.361 866.509 311.624 865.44L311.22 865.718C310.482 864.647 309.749 863.572 309.022 862.493L309.429 862.219C308.703 861.142 307.983 860.061 307.268 858.976L306.859 859.246C306.143 858.16 305.433 857.07 304.73 855.976L305.142 855.71C304.439 854.618 303.742 853.522 303.051 852.422L302.635 852.684C301.943 851.582 301.256 850.478 300.576 849.369L300.994 849.112C300.314 848.005 299.64 846.895 298.972 845.781L298.551 846.033C297.883 844.917 297.22 843.798 296.562 842.675L296.986 842.427C296.33 841.306 295.68 840.181 295.036 839.053L294.609 839.296C293.965 838.167 293.326 837.034 292.693 835.898L293.122 835.659C292.49 834.525 291.864 833.386 291.245 832.245L290.813 832.479C290.193 831.336 289.578 830.189 288.969 829.039L289.403 828.81C288.796 827.662 288.194 826.51 287.599 825.355L287.162 825.58C286.566 824.424 285.977 823.264 285.393 822.101L285.832 821.881C285.249 820.721 284.673 819.558 284.103 818.391L283.662 818.606C283.091 817.438 282.527 816.266 281.968 815.091L282.412 814.881C281.854 813.707 281.303 812.531 280.757 811.351L280.312 811.557C279.766 810.376 279.226 809.191 278.693 808.003L279.141 807.802C278.609 806.618 278.084 805.431 277.565 804.24L277.115 804.437C276.596 803.245 276.082 802.051 275.576 800.853L276.028 800.662C275.522 799.466 275.022 798.267 274.529 797.065L274.075 797.251C273.581 796.048 273.093 794.841 272.612 793.631L273.068 793.45C272.588 792.242 272.114 791.031 271.646 789.818L271.188 789.994C270.721 788.782 270.261 787.567 269.807 786.35L270.267 786.178C269.814 784.962 269.367 783.743 268.927 782.521L268.465 782.688C268.025 781.464 267.59 780.238 267.163 779.009L267.626 778.847C267.199 777.62 266.778 776.389 266.364 775.156L265.899 775.312C265.485 774.079 265.078 772.844 264.677 771.605L265.144 771.454C264.745 770.22 264.353 768.984 263.967 767.745L263.498 767.891C263.112 766.65 262.732 765.407 262.359 764.161L262.829 764.02C262.456 762.776 262.09 761.528 261.731 760.279L261.259 760.414C260.899 759.163 260.546 757.909 260.2 756.652L260.673 756.522C260.329 755.271 259.991 754.018 259.659 752.762L259.185 752.887C258.854 751.632 258.529 750.374 258.212 749.114L258.687 748.994C258.37 747.736 258.06 746.475 257.756 745.211L257.279 745.326C256.975 744.061 256.677 742.793 256.387 741.523L256.865 741.414C256.575 740.146 256.292 738.875 256.016 737.602L255.536 737.706C255.261 736.438 254.992 735.168 254.731 733.896L255.212 733.797C254.95 732.528 254.696 731.256 254.449 729.981L253.967 730.075C253.719 728.799 253.478 727.521 253.244 726.24L253.727 726.152C253.494 724.873 253.267 723.592 253.047 722.309L252.563 722.392C252.343 721.108 252.13 719.822 251.924 718.533L252.408 718.456C252.204 717.178 252.006 715.898 251.816 714.616L251.33 714.688C251.139 713.405 250.955 712.119 250.778 710.831L251.264 710.764C251.088 709.478 250.918 708.19 250.755 706.899L250.268 706.961C250.104 705.669 249.948 704.375 249.799 703.079L250.287 703.022C250.138 701.731 249.996 700.438 249.862 699.143L249.373 699.194C249.239 697.906 249.112 696.615 248.992 695.323L249.481 695.278C249.361 693.987 249.248 692.695 249.142 691.4L248.653 691.44C248.547 690.144 248.447 688.847 248.355 687.547L248.845 687.512C248.753 686.214 248.668 684.915 248.59 683.613L248.1 683.642C248.022 682.345 247.951 681.045 247.888 679.744L248.378 679.72C248.315 678.428 248.259 677.135 248.209 675.84L247.719 675.858C247.669 674.562 247.627 673.263 247.592 671.963L248.082 671.95C248.047 670.651 248.019 669.351 247.998 668.05L247.507 668.058C247.486 666.754 247.471 665.449 247.464 664.142L247.955 664.14C247.952 663.487 247.95 662.834 247.95 662.181C247.95 661.528 247.952 660.875 247.955 660.223L247.464 660.22C247.471 658.914 247.486 657.609 247.507 656.305L247.998 656.313C248.019 655.012 248.047 653.712 248.082 652.413L247.592 652.4C247.627 651.1 247.669 649.801 247.719 648.504L248.209 648.523C248.259 647.228 248.315 645.935 248.378 644.643L247.888 644.619C247.951 643.318 248.022 642.018 248.1 640.72L248.59 640.75C248.668 639.448 248.753 638.148 248.845 636.85L248.355 636.816C248.447 635.516 248.547 634.218 248.653 632.922L249.142 632.962C249.248 631.668 249.361 630.376 249.481 629.085L248.992 629.04C249.112 627.747 249.239 626.457 249.373 625.169L249.862 625.219C249.996 623.924 250.138 622.631 250.287 621.34L249.799 621.284C249.948 619.988 250.104 618.694 250.268 617.402L250.755 617.463C250.918 616.173 251.088 614.885 251.264 613.599L250.778 613.532C250.955 612.244 251.139 610.958 251.33 609.674L251.816 609.746C252.006 608.464 252.204 607.184 252.408 605.907L251.924 605.829C252.13 604.541 252.343 603.254 252.563 601.97L253.047 602.053C253.267 600.77 253.494 599.489 253.727 598.21L253.244 598.122C253.478 596.842 253.719 595.563 253.967 594.287L254.449 594.381C254.696 593.107 254.95 591.835 255.212 590.565L254.731 590.466C254.992 589.194 255.261 587.924 255.536 586.656L256.016 586.76C256.292 585.487 256.575 584.217 256.866 582.948L256.387 582.839C256.678 581.569 256.975 580.301 257.279 579.036L257.756 579.151C258.06 577.887 258.37 576.626 258.688 575.368L258.212 575.248C258.529 573.988 258.854 572.73 259.185 571.475L259.659 571.6C259.991 570.344 260.329 569.091 260.673 567.84L260.2 567.71C260.546 566.453 260.9 565.199 261.259 563.948L261.731 564.083C262.09 562.834 262.456 561.587 262.829 560.342L262.359 560.202C262.732 558.955 263.112 557.712 263.498 556.471L263.967 556.617C264.353 555.378 264.745 554.142 265.144 552.908L264.677 552.757C265.078 551.519 265.485 550.283 265.899 549.05L266.365 549.206C266.779 547.973 267.199 546.742 267.626 545.515L267.163 545.354C267.59 544.124 268.025 542.898 268.465 541.675L268.927 541.841C269.367 540.619 269.814 539.4 270.267 538.184L269.807 538.013C270.261 536.795 270.721 535.58 271.188 534.368L271.646 534.545C272.114 533.331 272.588 532.12 273.068 530.912L272.612 530.731C273.093 529.521 273.581 528.314 274.075 527.111L274.529 527.297C275.022 526.095 275.522 524.896 276.028 523.7L275.576 523.509C276.083 522.311 276.596 521.117 277.115 519.926L277.565 520.122C278.084 518.931 278.609 517.744 279.141 516.56L278.693 516.359C279.227 515.171 279.766 513.987 280.312 512.805L280.758 513.011C281.303 511.831 281.854 510.655 282.412 509.482L281.968 509.271C282.527 508.096 283.091 506.924 283.662 505.756L284.103 505.971C284.673 504.805 285.249 503.641 285.832 502.481L285.393 502.261C285.977 501.098 286.567 499.939 287.162 498.783L287.599 499.008C288.194 497.852 288.796 496.701 289.403 495.552L288.97 495.323C289.578 494.173 290.193 493.026 290.813 491.883L291.245 492.117C291.864 490.976 292.49 489.838 293.122 488.703L292.693 488.464C293.326 487.328 293.965 486.195 294.61 485.066L295.036 485.309C295.68 484.181 296.33 483.056 296.986 481.935L296.563 481.687C297.22 480.564 297.883 479.445 298.552 478.329L298.972 478.582C299.64 477.468 300.314 476.357 300.994 475.25L300.576 474.993C301.256 473.885 301.943 472.78 302.635 471.679L303.051 471.94C303.742 470.84 304.439 469.744 305.142 468.652L304.73 468.386C305.434 467.293 306.143 466.203 306.859 465.116L307.269 465.386C307.983 464.301 308.703 463.22 309.429 462.143L309.022 461.869C309.749 460.79 310.482 459.715 311.22 458.644L311.624 458.923C312.361 457.853 313.104 456.787 313.853 455.725L313.452 455.442C314.201 454.379 314.956 453.32 315.716 452.265L316.114 452.551C316.874 451.498 317.638 450.448 318.409 449.402L318.014 449.111C318.785 448.064 319.562 447.021 320.344 445.981L320.736 446.277C321.518 445.239 322.304 444.205 323.097 443.175L322.708 442.876C323.501 441.844 324.3 440.817 325.104 439.794L325.49 440.097C326.292 439.076 327.1 438.059 327.913 437.047L327.53 436.739C328.344 435.725 329.164 434.716 329.988 433.71L330.368 434.021C331.191 433.017 332.02 432.016 332.854 431.02L332.478 430.705C333.313 429.708 334.154 428.714 335 427.725L335.373 428.044C336.217 427.057 337.067 426.073 337.922 425.094L337.552 424.771C338.407 423.792 339.267 422.818 340.132 421.847L340.498 422.174C341.363 421.204 342.232 420.239 343.106 419.278L342.743 418.948C343.618 417.986 344.499 417.028 345.384 416.075L345.744 416.409C346.628 415.457 347.518 414.509 348.412 413.565L348.056 413.228C348.951 412.284 349.851 411.344 350.755 410.409L351.108 410.751C352.011 409.818 352.918 408.89 353.831 407.966L353.481 407.621C354.395 406.696 355.314 405.775 356.237 404.859L356.583 405.207C357.505 404.292 358.432 403.381 359.364 402.475L359.022 402.123C359.955 401.216 360.893 400.313 361.836 399.415L362.174 399.77C363.114 398.875 364.059 397.984 365.008 397.098L364.673 396.739C365.623 395.852 366.578 394.97 367.537 394.092L367.868 394.454C368.826 393.577 369.789 392.705 370.757 391.838L370.429 391.472C371.398 390.604 372.371 389.74 373.349 388.88L373.673 389.249C374.65 388.391 375.631 387.538 376.617 386.689L376.297 386.317C377.281 385.47 378.27 384.627 379.263 383.789L379.58 384.164C380.572 383.327 381.569 382.495 382.57 381.667L382.257 381.289C383.26 380.46 384.267 379.636 385.278 378.817L385.587 379.199C386.597 378.381 387.611 377.568 388.63 376.759L388.325 376.375C389.344 375.566 390.368 374.763 391.395 373.964L391.697 374.351C392.721 373.555 393.749 372.764 394.782 371.977L394.485 371.587C395.519 370.799 396.558 370.017 397.6 369.239L397.894 369.633C398.935 368.856 399.981 368.084 401.031 367.317L400.741 366.921C401.792 366.153 402.848 365.39 403.907 364.632L404.193 365.032C405.249 364.276 406.309 363.526 407.373 362.781L407.091 362.379C408.155 361.633 409.223 360.893 410.295 360.158L410.573 360.563C411.644 359.829 412.719 359.099 413.797 358.375L413.524 357.968C414.604 357.242 415.688 356.522 416.777 355.807L417.046 356.218C418.133 355.503 419.224 354.794 420.319 354.09L420.053 353.678C421.146 352.975 422.242 352.278 423.342 351.586L423.604 352.001C424.702 351.311 425.804 350.625 426.91 349.944L426.652 349.526C427.76 348.845 428.871 348.168 429.986 347.497L430.239 347.918C431.352 347.247 432.47 346.582 433.591 345.922L433.342 345.499C434.464 344.839 435.59 344.184 436.719 343.534L436.964 343.959C438.088 343.313 439.215 342.671 440.346 342.035L440.105 341.607C441.238 340.971 442.374 340.339 443.513 339.713L443.75 340.143C444.888 339.517 446.03 338.897 447.175 338.282L446.943 337.849C448.09 337.234 449.24 336.623 450.394 336.018L450.622 336.453C451.773 335.849 452.927 335.251 454.085 334.659L453.862 334.222C455.017 333.63 456.176 333.044 457.338 332.463L457.557 332.902C458.718 332.322 459.882 331.748 461.05 331.179L460.835 330.737C462.004 330.167 463.177 329.603 464.352 329.044L464.563 329.487C465.738 328.929 466.915 328.376 468.096 327.828L467.89 327.383C469.07 326.836 470.253 326.295 471.439 325.759L471.641 326.206C472.822 325.672 474.007 325.144 475.195 324.621L474.997 324.172C476.186 323.649 477.379 323.131 478.574 322.618L478.768 323.07C479.962 322.558 481.159 322.052 482.36 321.551L482.171 321.098C483.373 320.596 484.578 320.101 485.786 319.61L485.971 320.065C487.173 319.577 488.379 319.095 489.587 318.618L489.407 318.162C490.615 317.686 491.825 317.215 493.038 316.75L493.214 317.208C494.426 316.744 495.641 316.285 496.859 315.831L496.687 315.371C497.907 314.918 499.129 314.469 500.354 314.027L500.521 314.488C501.745 314.046 502.971 313.61 504.201 313.179L504.039 312.716C505.264 312.287 506.492 311.863 507.723 311.445L507.881 311.91C509.108 311.493 510.338 311.082 511.571 310.677L511.418 310.211C512.653 309.805 513.89 309.405 515.13 309.01L515.279 309.478C516.517 309.084 517.759 308.696 519.003 308.313L518.858 307.844C520.104 307.461 521.352 307.084 522.603 306.712L522.743 307.183C523.985 306.814 525.23 306.451 526.477 306.093L526.342 305.622C527.59 305.264 528.84 304.912 530.092 304.567L530.223 305.04C531.474 304.694 532.728 304.354 533.984 304.021L533.858 303.546C535.116 303.212 536.376 302.883 537.639 302.56L537.76 303.036C539.022 302.714 540.286 302.397 541.552 302.086L541.435 301.61C542.694 301.301 543.956 300.998 545.22 300.7L545.332 301.178C546.594 300.881 547.858 300.59 549.124 300.305L549.016 299.827C550.284 299.541 551.554 299.262 552.827 298.988L552.93 299.468C554.201 299.194 555.474 298.927 556.75 298.665L556.651 298.184C557.928 297.922 559.208 297.666 560.489 297.416L560.583 297.898C561.854 297.65 563.127 297.408 564.402 297.171L564.312 296.689C565.588 296.452 566.865 296.222 568.145 295.997L568.23 296.481C569.508 296.256 570.789 296.038 572.071 295.825L571.991 295.341C573.275 295.128 574.561 294.921 575.85 294.721L575.926 295.205C577.212 295.005 578.501 294.81 579.792 294.621L579.721 294.136C581.004 293.948 582.288 293.767 583.574 293.591L583.641 294.077C584.924 293.902 586.209 293.733 587.497 293.569L587.435 293.082C588.723 292.919 590.014 292.761 591.307 292.609L591.364 293.097C592.655 292.945 593.949 292.799 595.244 292.66L595.191 292.172C596.488 292.032 597.786 291.898 599.086 291.77L599.134 292.259C600.423 292.132 601.713 292.012 603.005 291.897L602.962 291.408C604.253 291.293 605.546 291.185 606.841 291.082L606.879 291.571C608.173 291.469 609.468 291.372 610.764 291.281L610.73 290.792C612.028 290.701 613.328 290.616 614.63 290.537L614.66 291.027C615.96 290.949 617.262 290.876 618.565 290.809L618.54 290.319C619.836 290.253 621.133 290.193 622.432 290.138L622.452 290.629C623.745 290.575 625.039 290.527 626.335 290.485L626.319 289.994C627.617 289.952 628.916 289.916 630.217 289.885L630.228 290.376C631.527 290.346 632.828 290.322 634.13 290.304L634.123 289.813C635.427 289.795 636.732 289.783 638.039 289.777L638.042 290.267C638.694 290.264 639.347 290.263 640.001 290.263C640.654 290.263 641.307 290.264 641.959 290.267L641.962 289.777C643.268 289.783 644.574 289.795 645.877 289.813L645.871 290.304C647.173 290.322 648.474 290.346 649.773 290.376L649.784 289.885C651.085 289.916 652.384 289.952 653.681 289.994L653.665 290.484C654.961 290.527 656.256 290.575 657.549 290.629L657.569 290.138C658.868 290.193 660.165 290.253 661.461 290.319L661.436 290.809C662.739 290.876 664.041 290.949 665.341 291.027L665.371 290.537C666.673 290.616 667.973 290.701 669.271 290.792L669.237 291.281C670.533 291.372 671.828 291.469 673.122 291.571L673.16 291.082C674.455 291.185 675.748 291.293 677.039 291.408L676.996 291.897C678.288 292.012 679.578 292.132 680.867 292.259L680.915 291.77C682.215 291.898 683.514 292.032 684.81 292.172L684.758 292.66C686.053 292.799 687.346 292.945 688.637 293.097L688.694 292.609C689.987 292.761 691.278 292.919 692.566 293.082L692.505 293.569C693.792 293.733 695.077 293.902 696.36 294.077L696.427 293.591C697.713 293.767 698.998 293.948 700.28 294.136L700.209 294.621C701.5 294.81 702.789 295.005 704.076 295.205L704.151 294.721C705.44 294.921 706.726 295.128 708.01 295.341L707.93 295.825C709.213 296.038 710.493 296.256 711.771 296.481L711.856 295.997C713.136 296.222 714.414 296.452 715.689 296.689L715.6 297.171C716.875 297.408 718.147 297.65 719.418 297.898L719.512 297.416C720.794 297.666 722.073 297.922 723.35 298.184L723.252 298.665C724.527 298.927 725.801 299.194 727.072 299.468L727.175 298.988C728.447 299.262 729.717 299.541 730.985 299.827L730.877 300.305C732.144 300.591 733.408 300.881 734.669 301.178L734.781 300.7C736.046 300.998 737.307 301.301 738.566 301.61L738.45 302.087C739.716 302.397 740.98 302.714 742.241 303.036L742.363 302.561C743.625 302.883 744.886 303.212 746.144 303.546L746.017 304.021C747.274 304.355 748.527 304.694 749.779 305.04L749.909 304.567C751.162 304.913 752.412 305.264 753.659 305.622L753.524 306.094C754.772 306.451 756.016 306.814 757.259 307.183L757.398 306.712C758.649 307.084 759.898 307.461 761.143 307.844L760.999 308.313C762.243 308.696 763.484 309.084 764.723 309.478L764.871 309.01C766.112 309.405 767.349 309.805 768.583 310.211L768.43 310.677C769.663 311.083 770.893 311.494 772.121 311.91L772.278 311.445C773.509 311.863 774.737 312.287 775.963 312.716L775.8 313.179C777.03 313.61 778.257 314.046 779.481 314.489L779.647 314.027C780.872 314.469 782.095 314.918 783.314 315.372L783.143 315.832C784.361 316.285 785.576 316.744 786.788 317.208L786.963 316.75C788.177 317.215 789.387 317.686 790.594 318.162L790.414 318.619C791.623 319.095 792.828 319.578 794.031 320.065L794.215 319.611C795.424 320.101 796.629 320.597 797.831 321.098L797.642 321.551C798.842 322.052 800.04 322.558 801.234 323.07L801.427 322.619C802.623 323.131 803.815 323.649 805.005 324.172L804.807 324.621C805.995 325.144 807.179 325.673 808.361 326.206L808.563 325.759C809.749 326.295 810.932 326.836 812.111 327.383L811.905 327.828C813.086 328.376 814.264 328.929 815.438 329.487L815.649 329.044C816.825 329.603 817.997 330.168 819.166 330.738L818.951 331.179C820.119 331.748 821.283 332.323 822.444 332.903L822.663 332.464C823.826 333.044 824.984 333.63 826.14 334.222L825.916 334.659C827.074 335.251 828.229 335.85 829.379 336.453L829.607 336.018C830.761 336.623 831.912 337.234 833.059 337.85L832.826 338.282C833.972 338.897 835.114 339.517 836.252 340.143L836.488 339.713C837.628 340.339 838.764 340.971 839.896 341.608L839.655 342.035C840.786 342.671 841.914 343.313 843.037 343.959L843.282 343.534C844.412 344.184 845.537 344.839 846.66 345.5L846.411 345.923C847.532 346.583 848.649 347.248 849.763 347.918L850.016 347.497C851.131 348.169 852.242 348.845 853.349 349.526L853.092 349.944C854.198 350.625 855.3 351.311 856.398 352.002L856.659 351.586C857.759 352.278 858.856 352.975 859.948 353.678L859.683 354.091C860.778 354.795 861.868 355.504 862.955 356.218L863.225 355.808C864.313 356.523 865.397 357.243 866.478 357.968L866.204 358.375C867.283 359.099 868.358 359.829 869.429 360.563L869.706 360.158C870.778 360.893 871.846 361.634 872.91 362.379L872.629 362.781C873.693 363.526 874.753 364.276 875.809 365.032L876.094 364.633C877.154 365.39 878.209 366.153 879.26 366.921L878.971 367.317C880.021 368.084 881.066 368.856 882.108 369.633L882.401 369.239C883.444 370.017 884.482 370.8 885.517 371.587L885.219 371.978C886.252 372.764 887.281 373.555 888.305 374.351L888.606 373.964C889.634 374.763 890.657 375.566 891.676 376.375L891.371 376.759C892.39 377.568 893.405 378.381 894.415 379.199L894.724 378.818C895.735 379.637 896.742 380.46 897.744 381.289L897.432 381.667C898.433 382.495 899.429 383.327 900.422 384.164L900.738 383.789C901.732 384.627 902.72 385.47 903.705 386.317L903.385 386.689C904.37 387.538 905.352 388.391 906.328 389.249L906.652 388.881C907.63 389.74 908.604 390.604 909.572 391.472L909.245 391.838C910.212 392.705 911.175 393.577 912.133 394.454L912.464 394.092C913.424 394.97 914.379 395.852 915.328 396.739L914.994 397.098C915.943 397.984 916.887 398.875 917.827 399.77L918.166 399.415C919.108 400.313 920.046 401.216 920.98 402.123L920.637 402.475C921.569 403.381 922.496 404.292 923.419 405.207L923.764 404.859C924.688 405.775 925.606 406.696 926.52 407.621L926.171 407.966C927.083 408.89 927.991 409.818 928.893 410.751L929.246 410.41C930.151 411.345 931.051 412.284 931.945 413.228L931.589 413.566C932.484 414.509 933.373 415.457 934.257 416.409L934.617 416.075C935.503 417.028 936.383 417.986 937.258 418.948L936.895 419.279C937.77 420.239 938.639 421.204 939.503 422.174L939.869 421.847C940.734 422.818 941.595 423.793 942.449 424.772L942.08 425.095C942.934 426.074 943.784 427.057 944.629 428.045L945.002 427.726C945.847 428.715 946.688 429.708 947.523 430.705L947.147 431.02C947.981 432.017 948.81 433.017 949.634 434.021L950.013 433.71C950.838 434.716 951.657 435.726 952.471 436.74L952.089 437.047C952.902 438.06 953.709 439.076 954.512 440.097L954.898 439.794C955.702 440.817 956.5 441.845 957.294 442.876L956.905 443.175C957.697 444.205 958.484 445.239 959.265 446.277L959.657 445.982C960.44 447.021 961.216 448.064 961.988 449.111L961.593 449.402C962.363 450.448 963.128 451.498 963.887 452.552L964.285 452.265C965.046 453.32 965.801 454.379 966.55 455.442L966.149 455.725C966.897 456.787 967.64 457.853 968.377 458.923L968.781 458.644C969.52 459.715 970.252 460.79 970.979 461.869L970.572 462.143C971.298 463.221 972.018 464.302 972.733 465.387L973.143 465.117C973.858 466.203 974.568 467.293 975.272 468.387L974.859 468.652C975.562 469.745 976.259 470.841 976.951 471.94L977.366 471.679C978.058 472.78 978.745 473.885 979.426 474.993L979.007 475.25C979.687 476.357 980.361 477.468 981.029 478.582L981.45 478.33C982.119 479.445 982.782 480.565 983.439 481.687L983.015 481.935C983.671 483.057 984.321 484.181 984.966 485.31L985.392 485.066C986.037 486.196 986.675 487.328 987.308 488.464L986.879 488.703C987.511 489.838 988.137 490.976 988.757 492.118L989.188 491.883C989.809 493.026 990.423 494.173 991.032 495.323L990.598 495.553C991.206 496.701 991.807 497.853 992.403 499.008L992.839 498.783C993.435 499.939 994.025 501.098 994.608 502.261L994.17 502.481C994.752 503.641 995.328 504.805 995.898 505.972L996.339 505.756C996.91 506.925 997.475 508.096 998.033 509.271L997.59 509.482C998.147 510.655 998.699 511.832 999.244 513.011L999.689 512.806C1000.24 513.987 1000.77 515.172 1001.31 516.359L1000.86 516.56C1001.39 517.744 1001.92 518.932 1002.44 520.122L1002.89 519.926C1003.41 521.117 1003.92 522.312 1004.43 523.509L1003.97 523.7C1004.48 524.896 1004.98 526.095 1005.47 527.297L1005.93 527.111C1006.42 528.315 1006.91 529.521 1007.39 530.731L1006.93 530.913C1007.41 532.12 1007.89 533.331 1008.36 534.545L1008.81 534.368C1009.28 535.58 1009.74 536.795 1010.19 538.013L1009.73 538.184C1010.19 539.4 1010.63 540.619 1011.07 541.841L1011.54 541.675C1011.98 542.898 1012.41 544.125 1012.84 545.354L1012.38 545.515C1012.8 546.743 1013.22 547.973 1013.64 549.206L1014.1 549.05C1014.52 550.283 1014.92 551.519 1015.32 552.757L1014.86 552.909C1015.26 554.142 1015.65 555.378 1016.03 556.617L1016.5 556.472C1016.89 557.712 1017.27 558.956 1017.64 560.202L1017.17 560.343C1017.55 561.587 1017.91 562.834 1018.27 564.084L1018.74 563.948C1019.1 565.199 1019.45 566.453 1019.8 567.71L1019.33 567.84C1019.67 569.091 1020.01 570.345 1020.34 571.6L1020.82 571.475C1021.15 572.73 1021.47 573.988 1021.79 575.248L1021.31 575.368C1021.63 576.627 1021.94 577.888 1022.25 579.151L1022.72 579.036C1023.03 580.301 1023.32 581.569 1023.61 582.839L1023.14 582.949C1023.43 584.217 1023.71 585.487 1023.99 586.76L1024.47 586.656C1024.74 587.924 1025.01 589.194 1025.27 590.466L1024.79 590.565C1025.05 591.835 1025.3 593.107 1025.55 594.381L1026.03 594.288C1026.28 595.563 1026.52 596.842 1026.76 598.122L1026.27 598.21C1026.51 599.489 1026.73 600.77 1026.95 602.053L1027.44 601.97C1027.66 603.254 1027.87 604.541 1028.08 605.829L1027.59 605.907C1027.8 607.184 1027.99 608.464 1028.19 609.746L1028.67 609.674C1028.86 610.958 1029.05 612.244 1029.22 613.532L1028.74 613.599C1028.91 614.885 1029.08 616.173 1029.25 617.463L1029.73 617.402C1029.9 618.694 1030.05 619.988 1030.2 621.284L1029.71 621.34C1029.86 622.631 1030 623.924 1030.14 625.219L1030.63 625.168C1030.76 626.457 1030.89 627.747 1031.01 629.04L1030.52 629.085C1030.64 630.375 1030.75 631.668 1030.86 632.962L1031.35 632.922C1031.45 634.218 1031.55 635.516 1031.65 636.816L1031.16 636.85C1031.25 638.148 1031.33 639.448 1031.41 640.75L1031.9 640.72C1031.98 642.018 1032.05 643.318 1032.11 644.619L1031.62 644.643C1031.69 645.934 1031.74 647.228 1031.79 648.523L1032.28 648.504C1032.33 649.801 1032.37 651.099 1032.41 652.4L1031.92 652.413C1031.95 653.711 1031.98 655.011 1032 656.313L1032.49 656.305Z" stroke="white" stroke-width="0.981667" stroke-dasharray="3.93 3.93"/>
<path opacity="0.2" d="M916.977 662.181C916.977 807.268 792.995 924.928 640 924.928C487.005 924.928 363.023 807.268 363.023 662.181C363.023 517.094 487.005 399.435 640 399.435C792.995 399.435 916.977 517.094 916.977 662.181Z" stroke="white" stroke-width="0.981667"/>
</g>
<defs>
<filter id="filter0_f_42_109" x="-287.675" y="-263.428" width="1858.29" height="1816.76" filterUnits="userSpaceOnUse" color-interpolation-filters="sRGB">
<feFlood flood-opacity="0" result="BackgroundImageFix"/>
<feBlend mode="normal" in="SourceGraphic" in2="BackgroundImageFix" result="shape"/>
<feGaussianBlur stdDeviation="262.105" result="effect1_foregroundBlur_42_109"/>
</filter>
<filter id="filter1_f_42_109" x="142.295" y="160.098" width="998.355" height="969.708" filterUnits="userSpaceOnUse" color-interpolation-filters="sRGB">
<feFlood flood-opacity="0" result="BackgroundImageFix"/>
<feBlend mode="normal" in="SourceGraphic" in2="BackgroundImageFix" result="shape"/>
<feGaussianBlur stdDeviation="109.947" result="effect1_foregroundBlur_42_109"/>
</filter>
<linearGradient id="paint0_linear_42_109" x1="641.472" y1="260.782" x2="641.472" y2="1029.12" gradientUnits="userSpaceOnUse">
<stop stop-color="#101010"/>
<stop offset="0.195" stop-color="#5050EA"/>
<stop offset="0.44" stop-color="#101010"/>
</linearGradient>
</defs>
</svg>
