<svg width="53" height="53" viewBox="0 0 53 53" fill="none" xmlns="http://www.w3.org/2000/svg">
<path d="M30.2958 28.0276C28.7564 28.0276 27.4535 27.4944 26.3871 26.428C25.3207 25.3616 24.7875 24.0587 24.7875 22.5193C24.7875 20.9799 25.3207 19.677 26.3871 18.6106C27.4535 17.5442 28.7564 17.011 30.2958 17.011C31.8352 17.011 33.1381 17.5442 34.2045 18.6106C35.2709 19.677 35.8041 20.9799 35.8041 22.5193C35.8041 24.0587 35.2709 25.3616 34.2045 26.428C33.1381 27.4944 31.8352 28.0276 30.2958 28.0276ZM15.7621 34.8497C14.667 34.8497 13.7295 34.4597 12.9495 33.6797C12.1695 32.8998 11.7795 31.9621 11.7795 30.8666V14.172C11.7795 13.0769 12.1695 12.1394 12.9495 11.3594C13.7295 10.5794 14.667 10.1895 15.7621 10.1895H44.829C45.9244 10.1895 46.8621 10.5794 47.6421 11.3594C48.4221 12.1394 48.8121 13.0769 48.8121 14.172V30.8666C48.8121 31.9621 48.4221 32.8998 47.6421 33.6797C46.8621 34.4597 45.9244 34.8497 44.829 34.8497H15.7621ZM19.0671 31.5447H41.5245C41.5245 30.446 41.9145 29.5074 42.6945 28.7289C43.4745 27.9507 44.412 27.5616 45.5071 27.5616V17.477C44.4083 17.477 43.4699 17.087 42.6918 16.307C41.9136 15.527 41.5245 14.5895 41.5245 13.4945H19.0671C19.0671 14.5932 18.6771 15.5316 17.8971 16.3098C17.1171 17.0879 16.1796 17.477 15.0845 17.477V27.5616C16.1833 27.5616 17.1217 27.9516 17.8998 28.7316C18.678 29.5116 19.0671 30.4493 19.0671 31.5447ZM40.592 42.5614H8.05095C6.95552 42.5614 6.01782 42.1714 5.23784 41.3914C4.45786 40.6114 4.06787 39.6737 4.06787 38.5783V18.4095C4.06787 17.9413 4.22633 17.5488 4.54324 17.2319C4.86015 16.9153 5.25271 16.757 5.72092 16.757C6.1895 16.757 6.58187 16.9153 6.89805 17.2319C7.2146 17.5488 7.37287 17.9413 7.37287 18.4095V38.5783C7.37287 38.7476 7.44338 38.9029 7.58439 39.0443C7.72577 39.1857 7.88129 39.2564 8.05095 39.2564H40.592C41.0602 39.2564 41.4527 39.4148 41.7697 39.7317C42.0862 40.0483 42.2445 40.4409 42.2445 40.9094C42.2445 41.378 42.0862 41.7704 41.7697 42.0866C41.4527 42.4031 41.0602 42.5614 40.592 42.5614ZM15.7621 31.5447H15.0845V13.4945H15.7621C15.5785 13.4945 15.4196 13.5615 15.2856 13.6955C15.1516 13.8295 15.0845 13.9884 15.0845 14.172V30.8666C15.0845 31.0502 15.1516 31.2091 15.2856 31.3431C15.4196 31.4775 15.5785 31.5447 15.7621 31.5447Z" fill="#5050EA"/>
</svg>
