<svg width="54" height="53" viewBox="0 0 54 53" fill="none" xmlns="http://www.w3.org/2000/svg">
<path d="M20.0449 25.0375L24.9309 20.1178L21.1256 16.2784L19.7992 17.6049C19.494 17.91 19.1161 18.0718 18.6655 18.0902C18.2153 18.1085 17.8192 17.9467 17.4773 17.6049C17.1354 17.263 16.9645 16.8704 16.9645 16.4271C16.9645 15.9835 17.1354 15.5907 17.4773 15.2488L18.7696 13.9565L15.3797 10.5666L10.46 15.4863L20.0449 25.0375ZM37.7108 42.7365L42.6299 37.8168L39.2399 34.4268L37.914 35.7197C37.5861 36.0473 37.2025 36.2145 36.7633 36.2215C36.3241 36.2285 35.9335 36.0612 35.5916 35.7197C35.2501 35.3778 35.0793 34.9907 35.0793 34.5585C35.0793 34.1263 35.2501 33.7392 35.5916 33.3973L36.8845 32.0714L33.0665 28.287L28.1804 33.1731L37.7108 42.7365ZM10.0199 45.19C9.45175 45.19 8.97784 44.9999 8.59811 44.6199C8.21802 44.2401 8.02798 43.7662 8.02798 43.1981V37.8636C8.02798 37.5981 8.07609 37.3453 8.1723 37.1051C8.26815 36.8649 8.41927 36.6418 8.62566 36.4358L17.6894 27.3721L7.69306 17.3548C7.18187 16.8436 6.92627 16.2207 6.92627 15.4863C6.92627 14.7518 7.18187 14.129 7.69306 13.6178L13.5112 7.79964C14.0224 7.28845 14.6452 7.03855 15.3797 7.04993C16.1142 7.06095 16.737 7.32224 17.2482 7.8338L27.3206 17.8505L36.4014 8.7361C36.7433 8.3942 37.119 8.14136 37.5284 7.97757C37.9379 7.81379 38.3659 7.73189 38.8125 7.73189C39.2587 7.73189 39.6865 7.81379 40.096 7.97757C40.5058 8.14136 40.8815 8.3942 41.223 8.7361L44.4819 12.0925C44.8238 12.434 45.0729 12.8097 45.2294 13.2195C45.3862 13.629 45.4646 14.0568 45.4646 14.503C45.4646 14.9496 45.3862 15.3684 45.2294 15.7595C45.0729 16.1506 44.8238 16.5171 44.4819 16.859L35.4435 25.9525L45.4183 35.9698C45.9295 36.481 46.1851 37.1038 46.1851 37.8383C46.1851 38.5728 45.9295 39.1956 45.4183 39.7068L39.6002 45.5249C39.089 46.0361 38.4662 46.2917 37.7317 46.2917C36.9972 46.2917 36.3744 46.0361 35.8632 45.5249L25.8459 35.5286L16.7822 44.5923C16.5761 44.7987 16.353 44.9498 16.1129 45.0457C15.8727 45.1419 15.6199 45.19 15.3543 45.19H10.0199ZM11.3331 41.8849H14.7781L36.3926 20.304L32.9139 16.8254L11.3331 38.4398V41.8849ZM34.6811 18.5711L32.9139 16.8254L36.3926 20.304L34.6811 18.5711Z" fill="#5050EA"/>
</svg>
