<svg width="32" height="32" viewBox="0 0 32 32" fill="none" xmlns="http://www.w3.org/2000/svg">
<path d="M5.4875 26.2564V14.1537H5.35916C4.79672 14.1537 4.3185 13.9567 3.9245 13.5627C3.5305 13.1687 3.3335 12.6906 3.3335 12.1284V9.23069C3.3335 8.66847 3.5305 8.19036 3.9245 7.79636C4.3185 7.40236 4.79672 7.20536 5.35916 7.20536H10.2285C10.0405 6.98825 9.91272 6.7437 9.84516 6.4717C9.77761 6.19992 9.74383 5.91447 9.74383 5.61536C9.74383 4.61825 10.0928 3.77069 10.7908 3.07269C11.4888 2.37469 12.3364 2.0257 13.3335 2.0257C13.8446 2.0257 14.3182 2.13292 14.7542 2.34736C15.1899 2.56203 15.5796 2.84881 15.9232 3.20769C16.2667 2.83503 16.6565 2.54492 17.0925 2.33736C17.5283 2.12958 18.0017 2.0257 18.5128 2.0257C19.5102 2.0257 20.3578 2.37469 21.0558 3.07269C21.7538 3.77069 22.1028 4.61825 22.1028 5.61536C22.1028 5.91114 22.0656 6.19236 21.9912 6.45903C21.9167 6.7257 21.7924 6.97447 21.6182 7.20536H26.6412C27.2036 7.20536 27.6818 7.40236 28.0758 7.79636C28.4698 8.19036 28.6668 8.66847 28.6668 9.23069V12.1284C28.6668 12.6906 28.4698 13.1687 28.0758 13.5627C27.6818 13.9567 27.2036 14.1537 26.6412 14.1537H26.5128V26.2564C26.5128 26.9192 26.2768 27.4867 25.8048 27.9587C25.3328 28.4307 24.7655 28.6667 24.1028 28.6667H7.8975C7.23483 28.6667 6.6675 28.4307 6.1955 27.9587C5.7235 27.4867 5.4875 26.9192 5.4875 26.2564ZM18.5128 4.0257C18.0624 4.0257 17.6848 4.17803 17.3802 4.48269C17.0755 4.78736 16.9232 5.16492 16.9232 5.61536C16.9232 6.06581 17.0755 6.44336 17.3802 6.74803C17.6848 7.05292 18.0624 7.20536 18.5128 7.20536C18.9633 7.20536 19.3409 7.05292 19.6458 6.74803C19.9505 6.44336 20.1028 6.06581 20.1028 5.61536C20.1028 5.16492 19.9505 4.78736 19.6458 4.48269C19.3409 4.17803 18.9633 4.0257 18.5128 4.0257ZM11.7438 5.61536C11.7438 6.06581 11.8962 6.44336 12.2008 6.74803C12.5055 7.05292 12.8831 7.20536 13.3335 7.20536C13.7839 7.20536 14.1615 7.05292 14.4662 6.74803C14.7708 6.44336 14.9232 6.06581 14.9232 5.61536C14.9232 5.16492 14.7708 4.78736 14.4662 4.48269C14.1615 4.17803 13.7839 4.0257 13.3335 4.0257C12.8831 4.0257 12.5055 4.17803 12.2008 4.48269C11.8962 4.78736 11.7438 5.16492 11.7438 5.61536ZM5.3335 9.20503V12.154H15.0002V9.20503H5.3335ZM15.0002 26.6667V14.1537H7.48716V26.2564C7.48716 26.3761 7.52572 26.4745 7.60283 26.5514C7.67972 26.6282 7.77794 26.6667 7.8975 26.6667H15.0002ZM17.0002 26.6667H24.1028C24.2224 26.6667 24.3206 26.6282 24.3975 26.5514C24.4746 26.4745 24.5132 26.3761 24.5132 26.2564V14.1537H17.0002V26.6667ZM26.6668 12.154V9.20503H17.0002V12.154H26.6668Z" fill="#5050EA"/>
</svg>
