<svg width="82" height="33" viewBox="0 0 82 33" fill="none" xmlns="http://www.w3.org/2000/svg">
<g clip-path="url(#clip0_37_105)">
<path d="M22.0743 8.4471L16.1636 8.24437V32.6171H23.3928V9.79864C23.3928 9.07782 22.8018 8.46963 22.0743 8.4471ZM11.9579 13.3352H14.6404V8.24437H13.0945C12.0715 8.24437 11.1167 8.28942 10.2301 8.37952C8.11589 8.60478 3.56917 9.97884 3.56917 12.4341C3.56917 13.9208 5.00139 14.3939 5.63793 14.529C5.66066 14.529 5.66066 14.5741 5.63793 14.5741L2.34156 14.5515H0V19.2819C0 19.9126 0.500139 20.4082 1.13668 20.4082H2.27336V32.5945H9.50263V20.4307H14.6404V14.5741H9.02523C9.0025 13.5379 9.9573 13.3352 11.9579 13.3352Z" fill="white"/>
<path d="M43.6941 13.4478C42.2619 13.4478 41.1025 14.5966 41.1025 16.0157V23.3365C41.1025 25.8143 40.3068 26.6027 36.9649 26.6027C33.6231 26.6027 32.6228 25.7693 32.6228 23.1113V16.0157C32.6228 14.5966 31.4634 13.4478 30.0312 13.4478H25.3936V25.7468C25.3936 29.8915 27.917 33.0225 33.3503 33.0225C38.7836 33.0225 40.7615 30.0266 41.1934 26.828H41.5799V32.6396H48.3317V13.4478H43.6941Z" fill="white"/>
<path d="M67.0866 22.841L74.3159 13.4478H67.3594C66.2682 13.4478 65.2452 13.9884 64.6314 14.9119L61.7897 19.2369H61.4032L58.4251 14.8444C57.8113 13.9659 56.811 13.4253 55.7426 13.4253H48.627L55.8562 22.9311V23.314L48.627 32.5945H55.5834C56.6746 32.5945 57.7204 32.0539 58.3342 31.1304L61.1532 26.9631H61.5396L64.5177 31.1979C65.1315 32.0764 66.1545 32.5945 67.223 32.5945H74.3386L67.1094 23.2014L67.0866 22.841Z" fill="white"/>
<path d="M76.8849 13.4478C75.7255 13.4478 74.7935 14.3713 74.7935 15.5201V32.6171H79.9085C81.0679 32.6171 82 31.6935 82 30.5447V13.4478H76.8849Z" fill="white"/>
<path d="M82 9.16792C81.9772 9.16792 81.9772 9.16792 81.9545 9.16792C80.204 9.21297 48.036 9.97884 41.8752 10.2266C41.6479 10.2266 40.7385 10.2717 40.2839 10.4294C39.5564 10.6771 39.1245 11.1276 38.9881 11.2628C38.6925 11.5556 38.1469 12.0061 37.5558 14.9119C37.2376 16.5113 37.0557 17.5925 36.9648 18.2232C36.942 18.3358 36.7829 18.3358 36.7602 18.2232C36.6692 17.57 36.4874 16.4887 36.1691 14.9119C35.578 12.0061 35.0324 11.5331 34.7369 11.2628C34.4413 10.97 33.9867 10.4294 31.054 9.84369C29.44 9.52833 28.3487 9.34812 27.7122 9.25802C27.5985 9.23549 27.5985 9.07782 27.7122 9.05529C28.3715 8.96519 29.4627 8.78498 31.054 8.46962C33.9867 7.88396 34.4641 7.34334 34.7369 7.05051C35.0324 6.75768 35.578 6.30717 36.1691 3.40136C36.4874 1.80205 36.6692 0.743344 36.7602 0.0901015C36.7829 -0.0225265 36.942 -0.0225265 36.9648 0.0901015C37.0557 0.743344 37.2376 1.82457 37.5558 3.40136C38.1469 6.30717 38.6925 6.7802 38.9881 7.05051C39.1245 7.18567 39.5337 7.63618 40.2839 7.88396C40.7385 8.04164 41.6479 8.08669 41.8752 8.08669C48.036 8.33447 80.204 9.12287 81.9545 9.14539C81.9772 9.16792 81.9772 9.16792 82 9.16792Z" fill="url(#paint0_linear_37_105)"/>
</g>
<defs>
<linearGradient id="paint0_linear_37_105" x1="103.414" y1="9.16974" x2="38.5809" y2="9.16974" gradientUnits="userSpaceOnUse">
<stop stop-color="#20205E"/>
<stop offset="1" stop-color="#5050EA"/>
</linearGradient>
<clipPath id="clip0_37_105">
<rect width="82" height="33" fill="white"/>
</clipPath>
</defs>
</svg>
