<svg width="40" height="41" viewBox="0 0 40 41" fill="none" xmlns="http://www.w3.org/2000/svg">
<path d="M20.1112 24.8767C19.9131 24.8767 19.7286 24.8451 19.5579 24.7817C19.3871 24.7184 19.2248 24.6099 19.0707 24.4561L11.6802 17.0656C11.4527 16.8378 11.3362 16.5516 11.3307 16.2068C11.3255 15.8623 11.442 15.5708 11.6802 15.3324C11.9186 15.0942 12.2075 14.9751 12.5468 14.9751C12.8861 14.9751 13.175 15.0942 13.4134 15.3324L20.1112 22.0306L26.8091 15.3324C27.0368 15.1049 27.3231 14.9884 27.6679 14.9829C28.0124 14.9777 28.3039 15.0942 28.5423 15.3324C28.7805 15.5708 28.8996 15.8597 28.8996 16.199C28.8996 16.5383 28.7805 16.8272 28.5423 17.0656L21.1518 24.4561C20.9977 24.6099 20.8353 24.7184 20.6646 24.7817C20.4939 24.8451 20.3094 24.8767 20.1112 24.8767Z" fill="#E8EAED"/>
</svg>
