<svg width="28" height="28" viewBox="0 0 28 28" fill="none" xmlns="http://www.w3.org/2000/svg">
<path d="M14.4631 23.0806L13.6107 22.3105C11.7749 20.6333 10.2562 19.1976 9.05481 18.0035C7.85358 16.8092 6.90537 15.756 6.21017 14.8439C5.51497 13.9318 5.02929 13.1065 4.75312 12.368C4.47695 11.6296 4.33887 10.8869 4.33887 10.1398C4.33887 8.70906 4.82493 7.50774 5.79704 6.53581C6.76897 5.56369 7.97029 5.07764 9.401 5.07764C10.3904 5.07764 11.3184 5.33074 12.1852 5.83696C13.0519 6.34317 13.8112 7.07943 14.4631 8.04573C15.115 7.07943 15.8743 6.34317 16.7411 5.83696C17.6078 5.33074 18.5359 5.07764 19.5253 5.07764C20.956 5.07764 22.1573 5.56369 23.1292 6.53581C24.1013 7.50774 24.5874 8.70906 24.5874 10.1398C24.5874 10.8869 24.4493 11.6296 24.1732 12.368C23.897 13.1065 23.4113 13.9318 22.7161 14.8439C22.0209 15.756 21.0763 16.8092 19.8821 18.0035C18.688 19.1976 17.1658 20.6333 15.3155 22.3105L14.4631 23.0806Z" fill="#4A72F3"/>
</svg>
