<svg width="54" height="53" viewBox="0 0 54 53" fill="none" xmlns="http://www.w3.org/2000/svg">
<path d="M33.6833 37.1393L37.1917 39.2745C37.3981 39.3931 37.5882 39.3861 37.7619 39.2535C37.9356 39.1206 37.9927 38.9397 37.9332 38.7109L36.9929 34.7156L40.0479 32.0924C40.2172 31.9371 40.2688 31.7599 40.2027 31.5608C40.1362 31.3614 39.9886 31.2434 39.7598 31.2066L35.7639 30.8635L34.1367 27.067C34.0632 26.861 33.9121 26.7579 33.6833 26.7579C33.4546 26.7579 33.3034 26.861 33.23 27.067L31.6028 30.8635L27.6069 31.2066C27.3781 31.2434 27.2305 31.3614 27.164 31.5608C27.0979 31.7599 27.1495 31.9371 27.3188 32.0924L30.3738 34.7156L29.4335 38.7109C29.374 38.9397 29.4311 39.1206 29.6048 39.2535C29.7785 39.3861 29.9686 39.3931 30.175 39.2745L33.6833 37.1393ZM10.1239 34.173C9.02508 34.173 8.08643 33.7839 7.30789 33.0057C6.52971 32.2272 6.14062 31.2885 6.14062 30.1898V9.51179C6.14062 8.41302 6.52971 7.47437 7.30789 6.69583C8.08643 5.91765 9.02508 5.52856 10.1239 5.52856H30.8018C31.9006 5.52856 32.8393 5.91765 33.6178 6.69583C34.396 7.47437 34.7851 8.41302 34.7851 9.51179V12.2661C34.7851 12.735 34.6268 13.1276 34.3102 13.4438C33.994 13.7603 33.6015 13.9186 33.1325 13.9186C32.6635 13.9186 32.271 13.7603 31.9548 13.4438C31.6382 13.1276 31.4799 12.735 31.4799 12.2661V9.51179C31.4799 9.31385 31.4164 9.15135 31.2893 9.02429C31.1623 8.89722 30.9998 8.83369 30.8018 8.83369H10.1239C9.92591 8.83369 9.76341 8.89722 9.63635 9.02429C9.50928 9.15135 9.44575 9.31385 9.44575 9.51179V30.1898C9.44575 30.3877 9.50928 30.5502 9.63635 30.6773C9.76341 30.8043 9.92591 30.8679 10.1239 30.8679H12.8781C13.3471 30.8679 13.7397 31.0261 14.0559 31.3427C14.3724 31.6589 14.5307 32.0515 14.5307 32.5204C14.5307 32.9894 14.3724 33.382 14.0559 33.6982C13.7397 34.0147 13.3471 34.173 12.8781 34.173H10.1239ZM23.3444 47.3935C22.2456 47.3935 21.3069 47.0044 20.5284 46.2262C19.7502 45.4477 19.3611 44.509 19.3611 43.4103V22.7323C19.3611 21.6335 19.7502 20.6949 20.5284 19.9163C21.3069 19.1382 22.2456 18.7491 23.3444 18.7491H44.0223C45.1211 18.7491 46.0598 19.1382 46.8383 19.9163C47.6165 20.6949 48.0056 21.6335 48.0056 22.7323V43.4103C48.0056 44.509 47.6165 45.4477 46.8383 46.2262C46.0598 47.0044 45.1211 47.3935 44.0223 47.3935H23.3444ZM23.3444 44.0884H44.0223C44.2203 44.0884 44.3828 44.0248 44.5098 43.8978C44.6369 43.7707 44.7004 43.6082 44.7004 43.4103V22.7323C44.7004 22.5344 44.6369 22.3719 44.5098 22.2448C44.3828 22.1177 44.2203 22.0542 44.0223 22.0542H23.3444C23.1464 22.0542 22.9839 22.1177 22.8569 22.2448C22.7298 22.3719 22.6663 22.5344 22.6663 22.7323V43.4103C22.6663 43.6082 22.7298 43.7707 22.8569 43.8978C22.9839 44.0248 23.1464 44.0884 23.3444 44.0884Z" fill="#5050EA"/>
</svg>
