<svg width="178" height="31" viewBox="0 0 178 31" fill="none" xmlns="http://www.w3.org/2000/svg">
<path d="M178 14.9626C178 15.0169 177.963 15.0786 177.926 15.0786C175.06 15.736 33.4064 16.4268 23.3221 16.8349C22.95 16.8349 21.4616 16.9091 20.7174 17.1688C19.5266 17.5769 18.8196 18.319 18.5963 18.5416C18.1126 19.0239 17.2195 19.7659 16.252 24.5521C15.7311 27.1863 15.4334 28.9672 15.2845 30.006C15.2473 30.1915 14.9868 30.1915 14.9496 30.006C14.8008 28.9301 14.5031 27.1492 13.9821 24.5521C13.0146 19.7659 12.1216 18.9868 11.6378 18.5416C11.1541 18.0593 10.4098 17.1688 5.6096 16.2042C2.9676 15.6848 1.18146 15.3879 0.139542 15.2395C-0.0465141 15.2024 -0.0465141 14.9427 0.139542 14.9056C1.21867 14.7572 3.00481 14.4604 5.6096 13.941C10.4098 12.9763 11.1913 12.0859 11.6378 11.6036C12.1216 11.1212 13.0146 10.3792 13.9821 5.59309C14.5031 2.95886 14.8008 1.21508 14.9496 0.139132C14.9868 -0.0463772 15.2473 -0.0463772 15.2845 0.139132C15.4334 1.21508 15.7311 2.99597 16.252 5.59309C17.2195 10.3792 18.1126 11.1583 18.5963 11.6036C18.8196 11.8262 19.4894 12.5682 20.7174 12.9763C21.4616 13.236 22.95 13.3102 23.3221 13.3102C33.4064 13.7184 175.06 14.3005 177.926 14.9255C162.89 15.177 178 14.9082 178 14.9626Z" fill="url(#paint0_linear_39_33)"/>
<defs>
<linearGradient id="paint0_linear_39_33" x1="124.051" y1="15.0941" x2="17.9299" y2="15.0941" gradientUnits="userSpaceOnUse">
<stop stop-color="#20205E"/>
<stop offset="1" stop-color="#5050EA"/>
</linearGradient>
</defs>
</svg>
